<svg width="34" height="40" viewBox="0 0 34 40" fill="none" xmlns="http://www.w3.org/2000/svg">
<path fill-rule="evenodd" clip-rule="evenodd" d="M33.121 31.138C32.5474 32.4733 31.8391 33.7465 31.007 34.938C30.2238 36.1323 29.3106 37.2361 28.284 38.229C27.3508 39.1618 26.1022 39.7116 24.784 39.77C23.6673 39.721 22.5704 39.4589 21.5521 38.998C20.4526 38.5191 19.2708 38.2579 18.072 38.229C16.841 38.2533 15.6263 38.5143 14.494 38.998C13.5158 39.4395 12.4708 39.7142 11.402 39.811C10.0433 39.7946 8.75043 39.223 7.82404 38.229C6.75275 37.201 5.79779 36.0585 4.97601 34.822C3.69269 32.9815 2.67877 30.9672 1.96503 28.84C1.15057 26.55 0.723083 24.1404 0.700012 21.71C0.635559 19.3262 1.22711 16.9705 2.4101 14.9C3.27167 13.4044 4.50482 12.1564 5.99005 11.277C7.45416 10.4009 9.12482 9.9295 10.831 9.91101C12.1193 9.9873 13.3853 10.2819 14.575 10.782C15.5233 11.1996 16.5215 11.493 17.545 11.655C18.6734 11.4196 19.7763 11.075 20.8381 10.626C22.2574 10.049 23.7827 9.77802 25.314 9.83099C28.2706 9.90753 31.0228 11.3567 32.759 13.751C29.9877 15.2238 28.2872 18.1367 28.367 21.274C28.3373 23.6525 29.3296 25.9294 31.092 27.527C31.8829 28.2837 32.8058 28.889 33.815 29.313C33.5964 29.9464 33.3651 30.5537 33.121 31.135V31.138ZM25.535 1.28699C25.5089 3.32031 24.7448 5.2749 23.3851 6.78693C21.657 8.80701 19.567 9.974 17.301 9.78699C17.2706 9.53986 17.2552 9.29102 17.2551 9.04199C17.3237 6.97534 18.1334 5.00232 19.5359 3.48303C20.3144 2.6106 21.2592 1.9024 22.315 1.40002C23.3035 0.889587 24.3847 0.583496 25.494 0.5C25.5222 0.761047 25.5358 1.02344 25.535 1.28601V1.28699Z" fill="white"/>
</svg>
