<svg width="36" height="35" viewBox="0 0 36 35" fill="none" xmlns="http://www.w3.org/2000/svg">
<path fill-rule="evenodd" clip-rule="evenodd" d="M18.039 0.5C8.96814 0.493164 1.42709 7.48309 0.746796 16.5284C0.0664673 25.5737 6.47717 33.613 15.447 34.963L15.447 22.434H11.157V17.876H15.448V14.843C15.448 9.82098 17.894 7.61798 22.068 7.61798C23.257 7.60205 24.4456 7.67419 25.624 7.83398L25.624 11.813H22.777C21.006 11.813 20.387 13.492 20.387 15.386V17.877H25.579L24.879 22.434H20.386V35C29.4155 33.7645 35.9452 25.7464 35.3266 16.6538C34.708 7.56116 27.1526 0.501282 18.039 0.5H18.039Z" fill="#4267B2"/>
</svg>
