<svg width="52" height="52" viewBox="0 0 52 52" fill="none" xmlns="http://www.w3.org/2000/svg">
<circle cx="25.9194" cy="25.5" r="25.5" fill="#EF72AD"/>
<path fill-rule="evenodd" clip-rule="evenodd" d="M26.1955 0C25.0713 0 23.9483 0.0727539 22.8335 0.218018C35.6608 1.90466 45.2509 12.8383 45.2509 25.776C45.2509 38.7137 35.6608 49.6473 22.8335 51.334C32.3631 52.587 41.7983 48.4341 47.3106 40.5603C52.8229 32.6864 53.4966 22.3997 49.0584 13.8741C44.6201 5.34863 35.8071 0.000488281 26.1955 0Z" fill="#EE539E"/>
<path fill-rule="evenodd" clip-rule="evenodd" d="M34.0976 12.0959H18.2896C15.103 12.1014 12.5211 14.6832 12.5156 17.8699V33.6749C12.5197 36.8644 15.1042 39.4484 18.2931 39.4519H34.0976C37.2866 39.448 39.8708 36.8639 39.8746 33.6749V17.8699C39.869 14.6819 37.2852 12.0996 34.0974 12.0959H34.0976ZM38.4836 33.6779C38.4809 36.0991 36.5188 38.0612 34.0976 38.0638H18.2896C15.8685 38.0612 13.9064 36.0991 13.9036 33.6779V17.8699C13.908 15.45 15.8695 13.4897 18.2895 13.4869H34.0946C36.5158 13.4896 38.4779 15.4517 38.4807 17.8729V33.6779H38.4836Z" fill="white"/>
<path fill-rule="evenodd" clip-rule="evenodd" d="M26.1958 18.5879C22.226 18.5879 19.0078 21.806 19.0078 25.7759C19.0078 29.7457 22.226 32.9639 26.1958 32.9639C30.1656 32.9639 33.3838 29.7457 33.3838 25.7759C33.3771 21.8086 30.1627 18.5944 26.1956 18.5879H26.1958ZM26.1958 31.5719C22.9926 31.5719 20.3958 28.9751 20.3958 25.7719C20.3958 22.5686 22.9926 19.9719 26.1958 19.9719C29.399 19.9719 31.9958 22.5686 31.9958 25.7719C31.9958 28.9751 29.399 31.5719 26.1958 31.5719Z" fill="white"/>
<circle cx="33.6148" cy="17.429" r="1.855" fill="white"/>
</svg>
