<svg width="51" height="50" viewBox="0 0 51 50" fill="none" xmlns="http://www.w3.org/2000/svg">
<circle cx="25.4194" cy="25" r="25" fill="#61BCFE"/>
<path fill-rule="evenodd" clip-rule="evenodd" d="M36.8595 18.886C38.0245 18.053 39.0279 17.0147 39.8205 15.822H39.8205C38.7377 16.2939 37.5926 16.6078 36.4205 16.754C37.6573 16.0212 38.5824 14.8602 39.0205 13.491C37.863 14.1771 36.5968 14.6603 35.2765 14.92C33.6223 13.1434 31.0488 12.5613 28.791 13.4531C26.5333 14.3448 25.0522 16.5285 25.0585 18.956C25.054 19.408 25.1 19.8591 25.1955 20.301C20.4451 20.0678 16.0189 17.822 13.0255 14.126C11.4451 16.8217 12.2406 20.282 14.8395 22.017C13.9051 21.9917 12.9904 21.7424 12.1725 21.29V21.355C12.1767 24.1644 14.1513 26.5857 16.9025 27.155C16.3974 27.2882 15.8768 27.3535 15.3545 27.3489C14.9797 27.3559 14.6052 27.3224 14.2375 27.249C15.0197 29.6497 17.2294 31.2973 19.7535 31.3619C17.6634 32.9964 15.0858 33.8833 12.4325 33.881C11.9606 33.8842 11.489 33.8574 11.0205 33.801C13.7203 35.5402 16.866 36.4602 20.0775 36.45C24.6757 36.4819 29.0833 34.6152 32.26 31.2906C35.4366 27.9659 37.1007 23.4779 36.8595 18.886Z" fill="white"/>
</svg>
