<svg width="51" height="50" viewBox="0 0 51 50" fill="none" xmlns="http://www.w3.org/2000/svg">
<circle cx="25.4194" cy="25" r="25" fill="white"/>
<path fill-rule="evenodd" clip-rule="evenodd" d="M19.6595 19.473H18.1875L22.1985 30.811L24.4446 24.394L22.7025 19.473H21.1505V18.393H28.0245V19.473H26.4146L30.4255 30.811L31.8676 26.691C33.7585 21.412 30.3175 19.768 30.3175 18.591C30.3175 17.413 31.2725 16.458 32.4506 16.458C32.5145 16.458 32.5765 16.458 32.6365 16.467C30.2484 14.2131 26.988 13.127 23.7253 13.4984C20.4628 13.8698 17.5299 15.661 15.7095 18.394H19.6595V19.473Z" fill="#00769D"/>
<path fill-rule="evenodd" clip-rule="evenodd" d="M13.8413 24.5668C13.84 28.691 16.1174 32.4796 19.7614 34.4133L14.7323 20.1948C14.1427 21.577 13.8396 23.0643 13.8413 24.5669V24.5668Z" fill="#00769D"/>
<path fill-rule="evenodd" clip-rule="evenodd" d="M34.6875 19.075C34.8429 20.0916 34.7977 21.1287 34.5546 22.1279H34.5985L34.4296 22.6099C34.3258 22.9673 34.203 23.3188 34.0615 23.663L30.2266 34.408C32.8795 32.9941 34.8494 30.569 35.6893 27.6824C36.5292 24.7958 36.1678 21.6924 34.6875 19.0759V19.075Z" fill="#00769D"/>
<path fill-rule="evenodd" clip-rule="evenodd" d="M21.5503 35.1719C23.7341 35.8765 26.0817 35.8932 28.2754 35.2199L25.0154 26.0039L21.5503 35.1719Z" fill="#00769D"/>
<path fill-rule="evenodd" clip-rule="evenodd" d="M34.4071 15.146C29.2043 9.94318 20.7689 9.94318 15.5662 15.146C10.3633 20.3488 10.3633 28.7842 15.5662 33.987C20.7689 39.1898 29.2043 39.1898 34.4071 33.9869C39.61 28.7842 39.61 20.3488 34.4071 15.146ZM24.9872 36.946C19.9791 36.9468 15.4639 33.9305 13.547 29.3039C11.6301 24.6772 12.6892 19.3515 16.2305 15.8103C19.7716 12.2691 25.0974 11.21 29.7241 13.1268C34.3507 15.0436 37.3669 19.559 37.3661 24.567C37.3549 31.3984 31.8196 36.9341 24.9875 36.946H24.9872Z" fill="#00769D"/>
</svg>
