<svg width="51" height="50" viewBox="0 0 51 50" fill="none" xmlns="http://www.w3.org/2000/svg">
<circle cx="25.4194" cy="25" r="25" fill="#8940FC"/>
<path fill-rule="evenodd" clip-rule="evenodd" d="M37.9564 28.231L35.5864 25.387C35.4937 25.283 35.3608 25.2234 35.2214 25.2234C35.082 25.2234 34.9492 25.283 34.8564 25.387L32.4865 28.231C32.3689 28.3724 32.3438 28.5691 32.4219 28.7356C32.5001 28.902 32.6675 29.0082 32.8514 29.0081H33.6054C32.7684 31.9882 30.2339 34.1815 27.1644 34.582V22.373H31.4304C31.6922 22.373 31.9044 22.1608 31.9044 21.899V20C31.9044 19.7382 31.6922 19.526 31.4304 19.526H27.1644V18.307C28.847 17.6263 29.8113 15.849 29.4646 14.0674C29.1179 12.2858 27.5574 10.9998 25.7424 10.9998C23.9274 10.9998 22.3669 12.2858 22.0203 14.0674C21.6736 15.849 22.6379 17.6263 24.3204 18.307V19.53H20.0554C19.7952 19.53 19.5836 19.7397 19.5814 20V21.9C19.5814 22.1617 19.7936 22.374 20.0554 22.374H24.3214V34.583C21.252 34.1825 18.7175 31.9891 17.8804 29.009H18.6354C18.8193 29.0092 18.9868 28.903 19.0649 28.7366C19.1431 28.5701 19.118 28.3734 19.0004 28.2321L16.6304 25.3879C16.5377 25.2839 16.4048 25.2244 16.2654 25.2244C16.126 25.2244 15.9932 25.2839 15.9005 25.3879L13.5294 28.231C13.4119 28.3724 13.3867 28.5691 13.4649 28.7356C13.5431 28.902 13.7105 29.0082 13.8944 29.0081H14.9514C15.8419 33.5978 19.6641 37.0432 24.3214 37.454V38.0131C24.3225 38.1384 24.3715 38.2585 24.4584 38.349L25.4064 39.297C25.5934 39.4801 25.8925 39.4801 26.0794 39.297L27.0274 38.349C27.1145 38.2587 27.1635 38.1384 27.1644 38.0131V37.454C31.8217 37.0432 35.644 33.5978 36.5344 29.0081H37.5914C37.7753 29.0082 37.9427 28.902 38.0209 28.7356C38.0991 28.5691 38.074 28.3724 37.9564 28.231ZM25.7424 16.212C25.1673 16.212 24.6487 15.8656 24.4286 15.3342C24.2086 14.8029 24.3302 14.1912 24.7369 13.7845C25.1436 13.3778 25.7552 13.2561 26.2866 13.4762C26.818 13.6963 27.1644 14.2148 27.1644 14.79C27.1644 15.5753 26.5278 16.212 25.7424 16.212Z" fill="white"/>
</svg>
