<svg width="51" height="50" viewBox="0 0 51 50" fill="none" xmlns="http://www.w3.org/2000/svg">
<circle cx="25.4194" cy="25" r="25" fill="#14100D"/>
<path fill-rule="evenodd" clip-rule="evenodd" d="M35.5045 18.233L37.4194 16.4V16H30.7855L26.0574 27.768L20.6784 16H13.7194V16.4L15.9594 19.094C16.1769 19.2934 16.288 19.5834 16.2595 19.877V30.46C16.3265 30.8416 16.2064 31.2321 15.9365 31.51L13.4194 34.564V34.964H20.5645V34.564L18.0444 31.51C17.771 31.2335 17.6426 30.845 17.6974 30.46V21.306L23.9694 34.965H24.6984L30.0914 21.306V32.187C30.0914 32.474 30.0914 32.533 29.9034 32.721L27.9634 34.6V35H37.3754V34.6L35.5054 32.769C35.3404 32.6446 35.258 32.439 35.2914 32.235V18.767C35.2573 18.5632 35.3394 18.3574 35.5045 18.233Z" fill="white"/>
</svg>
