<svg width="51" height="50" viewBox="0 0 51 50" fill="none" xmlns="http://www.w3.org/2000/svg">
<circle cx="25.4194" cy="25" r="25" fill="#FF671B"/>
<path fill-rule="evenodd" clip-rule="evenodd" d="M25.4196 29C25.2148 29 25.0189 28.9162 24.8776 28.768L19.6276 23.268C19.4203 23.051 19.3623 22.7312 19.4803 22.4552C19.5983 22.1792 19.8694 22.0001 20.1696 22H22.9196V16.25C22.9207 15.5601 23.4796 15.0011 24.1695 15H26.6696C27.3595 15.0011 27.9185 15.5601 27.9196 16.25V22H30.6696C30.9697 22.0001 31.2408 22.1792 31.3588 22.4552C31.4768 22.7312 31.4189 23.051 31.2115 23.268L25.9615 28.768C25.8202 28.9162 25.6243 29 25.4196 29Z" fill="white"/>
<path fill-rule="evenodd" clip-rule="evenodd" d="M35.6694 35H15.1694C14.2034 34.9989 13.4205 34.2161 13.4194 33.25V32.75C13.4205 31.7841 14.2033 31.0012 15.1693 31H35.6694C36.6355 31.0011 37.4183 31.7839 37.4194 32.75V33.25C37.4184 34.2159 36.6356 34.9988 35.6695 35H35.6694Z" fill="white"/>
</svg>
