<svg width="51" height="50" viewBox="0 0 51 50" fill="none" xmlns="http://www.w3.org/2000/svg">
<circle cx="25.4194" cy="25" r="25" fill="#FC3C3A"/>
<path fill-rule="evenodd" clip-rule="evenodd" d="M30.0504 24.2902L23.3503 20.1021C23.0922 19.9408 22.7667 19.9323 22.5004 20.0798C22.234 20.2273 22.0686 20.5077 22.0684 20.8121V29.1881C22.0688 29.4923 22.2341 29.7723 22.5001 29.9198C22.7661 30.0673 23.0912 30.059 23.3494 29.8982L30.0493 25.7101C30.2943 25.557 30.443 25.2885 30.443 24.9996C30.443 24.7108 30.2943 24.4423 30.0493 24.2891L30.0504 24.2902ZM23.7433 27.6771V22.3241L28.0264 25.0011L23.7433 27.6771Z" fill="white"/>
<path fill-rule="evenodd" clip-rule="evenodd" d="M35.5245 14.1121H15.3125C13.0007 14.1148 11.1273 15.9882 11.1245 18.3V31.7001C11.1271 34.0117 13.0005 35.8852 15.3123 35.8881H35.5245C37.8364 35.8853 39.7098 34.0119 39.7125 31.7001V18.3C39.7098 15.9884 37.8365 14.1149 35.5247 14.1121H35.5245ZM38.0375 31.701C38.0348 33.0875 36.9109 34.2104 35.5245 34.212H15.3125C13.9253 34.2104 12.8011 33.0862 12.7995 31.699V18.2991C12.8011 16.912 13.9252 15.7878 15.3124 15.7861H35.5245C36.9117 15.7877 38.0359 16.9119 38.0375 18.2991V31.701Z" fill="white"/>
</svg>
