<svg width="48" height="47" viewBox="0 0 48 47" fill="none" xmlns="http://www.w3.org/2000/svg">
<circle cx="23.9194" cy="23.5" r="23.5" fill="#007AB9"/>
<path fill-rule="evenodd" clip-rule="evenodd" d="M37.9603 25.391V35.0801H32.3433V26.04C32.3433 23.77 31.5323 22.22 29.4983 22.22C28.2011 22.2274 27.0483 23.0485 26.6173 24.272C26.4731 24.7134 26.4102 25.1772 26.4313 25.641V35.077H20.8133C20.8133 35.077 20.8883 19.7681 20.8133 18.183H26.4313V20.577C26.4203 20.5961 26.4043 20.614 26.3943 20.6321H26.4313V20.577C27.4672 18.7783 29.4164 17.7039 31.4903 17.788C35.1903 17.788 37.9563 20.203 37.9563 25.3881L37.9603 25.391ZM14.9373 10.041C13.8447 9.94739 12.7913 10.4723 12.2082 11.4011C11.6251 12.33 11.6102 13.5068 12.1696 14.4502C12.7289 15.3934 13.7686 15.9449 14.8633 15.879H14.8993C15.9962 15.9719 17.0524 15.4418 17.6334 14.5068C18.2144 13.5719 18.2219 12.39 17.6528 11.4478C17.0837 10.5055 16.0342 9.96204 14.9363 10.041H14.9373ZM12.0903 35.079H17.7053V18.1851H12.0903V35.079Z" fill="#F1F2F2"/>
</svg>
