<svg width="51" height="50" viewBox="0 0 51 50" fill="none" xmlns="http://www.w3.org/2000/svg">
<circle cx="25.4194" cy="25" r="25" fill="#1BBA54"/>
<path fill-rule="evenodd" clip-rule="evenodd" d="M34.7404 28.5879C29.3404 25.0289 22.5454 24.1649 14.5534 26.0269C13.8951 26.1978 13.493 26.8623 13.6471 27.5248C13.8012 28.1873 14.4553 28.6061 15.1214 28.4689C27.9794 25.4799 32.7524 30.8899 34.0494 30.8899C34.6024 30.8881 35.0891 30.5247 35.2481 29.995C35.4071 29.4653 35.201 28.894 34.7404 28.5879Z" fill="white"/>
<path fill-rule="evenodd" clip-rule="evenodd" d="M13.9862 22.199C21.1762 20.499 29.3382 21.4869 35.2862 24.777C35.8918 25.1119 36.6542 24.8927 36.9894 24.2872C37.3245 23.6819 37.1055 22.9193 36.5002 22.584C30.0262 19.0031 21.1802 17.923 13.4122 19.76C12.7387 19.9193 12.3219 20.5945 12.4812 21.2679C12.6405 21.9415 13.3157 22.3583 13.9892 22.199H13.9862Z" fill="white"/>
<path fill-rule="evenodd" clip-rule="evenodd" d="M13.0374 15.6759C20.6104 13.359 31.2374 14.63 37.2244 18.568C37.8011 18.9095 38.5444 18.7372 38.912 18.1768C39.2796 17.6162 39.1414 16.8658 38.5984 16.4729C31.9454 12.0979 20.6414 10.726 12.2984 13.2729C11.6356 13.4756 11.2627 14.1772 11.4654 14.84C11.6681 15.5027 12.3696 15.8756 13.0324 15.673L13.0374 15.6759Z" fill="white"/>
<circle cx="23.2744" cy="35" r="4" fill="white"/>
</svg>
