<svg width="27" height="32" viewBox="0 0 27 32" fill="none" xmlns="http://www.w3.org/2000/svg">
<g opacity="0.5">
<path fill-rule="evenodd" clip-rule="evenodd" d="M13.152 15.6C15.0935 15.6267 16.9604 14.8531 18.314 13.461C19.7059 12.1076 20.4795 10.2411 20.453 8.29996C20.4797 6.35849 19.7061 4.49161 18.314 3.13797C15.4633 0.287659 10.8417 0.287659 7.99103 3.13797C6.59888 4.49152 5.82526 6.35846 5.85199 8.29996C5.82526 10.2415 6.59888 12.1085 7.99103 13.462C9.34467 14.8533 11.2111 15.6265 13.152 15.6ZM9.24701 4.39496C10.2827 3.35886 11.6876 2.77676 13.1525 2.77676C14.6174 2.77676 16.0223 3.35886 17.058 4.39496C18.1178 5.4144 18.7042 6.82974 18.676 8.29996C18.7045 9.77051 18.118 11.1863 17.058 12.206C16.0224 13.2421 14.6175 13.8242 13.1525 13.8242C11.6876 13.8242 10.2827 13.2421 9.24701 12.206C8.18652 11.1866 7.59967 9.77072 7.62799 8.29996C7.59967 6.82922 8.18652 5.41339 9.24701 4.39398V4.39496Z" fill="white"/>
<path d="M18.314 13.461L18.0699 13.2099L18.0631 13.217L18.314 13.461ZM20.453 8.29996L20.1029 8.29515L20.103 8.30473L20.453 8.29996ZM18.314 3.13797L18.0665 3.3855L18.07 3.38889L18.314 3.13797ZM7.99103 3.13797L8.23504 3.38894L8.2385 3.38547L7.99103 3.13797ZM5.85199 8.29996L6.20209 8.30478L6.20196 8.29514L5.85199 8.29996ZM7.99103 13.462L8.24198 13.2178L8.23501 13.2111L7.99103 13.462ZM9.24701 4.39496H8.89701V5.2402L9.49455 4.64239L9.24701 4.39496ZM17.058 4.39496L16.8105 4.64245L16.8154 4.6472L17.058 4.39496ZM18.676 8.29996L18.3258 8.29324L18.3261 8.30674L18.676 8.29996ZM17.058 12.206L16.8154 11.9537L16.8105 11.9585L17.058 12.206ZM9.24701 12.206L9.4946 11.9585L9.48956 11.9536L9.24701 12.206ZM7.62799 8.29996L7.97819 8.3067L7.97793 8.29322L7.62799 8.29996ZM9.24701 4.39398H9.59701V3.57206L9.00446 4.14166L9.24701 4.39398ZM13.1472 15.9499C15.1849 15.978 17.1443 15.1661 18.565 13.705L18.0631 13.217C16.7766 14.5402 15.0021 15.2754 13.1569 15.25L13.1472 15.9499ZM18.558 13.7119C20.0188 12.2915 20.8308 10.3326 20.803 8.29518L20.103 8.30473C20.1282 10.1497 19.3929 11.9237 18.07 13.21L18.558 13.7119ZM20.803 8.30476C20.831 6.26711 20.019 4.30774 18.558 2.88705L18.07 3.38889C19.3931 4.67548 20.1284 6.44987 20.103 8.29515L20.803 8.30476ZM18.5615 2.89046C15.574 -0.0965041 10.7309 -0.0965079 7.74356 2.89047L8.2385 3.38547C10.9525 0.671825 15.3525 0.671821 18.0666 3.38548L18.5615 2.89046ZM7.74704 2.88703C6.28592 4.30764 5.47396 6.26708 5.50202 8.30478L6.20196 8.29514C6.17655 6.44984 6.91184 4.67539 8.23501 3.38891L7.74704 2.88703ZM5.50202 8.29514C5.47397 10.3329 6.28591 12.2923 7.74704 13.7129L8.23501 13.2111C6.91184 11.9246 6.17655 10.1502 6.20196 8.30478L5.50202 8.29514ZM7.74017 13.7061C9.16086 15.1663 11.1197 15.9777 13.1568 15.9499L13.1473 15.25C11.3024 15.2752 9.52848 14.5403 8.24189 13.2179L7.74017 13.7061ZM9.49455 4.64239C10.4646 3.67196 11.7804 3.12676 13.1525 3.12676V2.42676C11.5947 2.42676 10.1008 3.04575 8.99947 4.14753L9.49455 4.64239ZM13.1525 3.12676C14.5246 3.12676 15.8404 3.67196 16.8105 4.6424L17.3056 4.14752C16.2042 3.04575 14.7103 2.42676 13.1525 2.42676V3.12676ZM16.8154 4.6472C17.8049 5.59903 18.3524 6.92052 18.3261 8.29325L19.026 8.30667C19.056 6.73896 18.4307 5.22976 17.3007 4.14272L16.8154 4.6472ZM18.3261 8.30674C18.3527 9.67976 17.8051 11.0017 16.8154 11.9537L17.3007 12.4582C18.431 11.3709 19.0564 9.86125 19.026 8.29317L18.3261 8.30674ZM16.8105 11.9585C15.8405 12.929 14.5246 13.4742 13.1525 13.4742V14.1742C14.7103 14.1742 16.2043 13.5552 17.3056 12.4534L16.8105 11.9585ZM13.1525 13.4742C11.7804 13.4742 10.4646 12.929 9.49455 11.9585L8.99947 12.4534C10.1008 13.5552 11.5947 14.1742 13.1525 14.1742V13.4742ZM9.48956 11.9536C8.49942 11.0018 7.95148 9.67992 7.97793 8.3067L7.27806 8.29322C7.24786 9.86153 7.87363 11.3713 9.00446 12.4583L9.48956 11.9536ZM7.97793 8.29322C7.95148 6.92003 8.49942 5.5981 9.48956 4.64631L9.00446 4.14166C7.87363 5.22868 7.24786 6.73842 7.27806 8.3067L7.97793 8.29322ZM8.89701 4.39398V4.39496H9.59701V4.39398H8.89701Z" fill="white"/>
<path fill-rule="evenodd" clip-rule="evenodd" d="M25.926 24.307C25.8783 23.6648 25.7961 23.0255 25.68 22.392C25.5654 21.7404 25.4081 21.097 25.209 20.466C25.0079 19.8403 24.7425 19.237 24.417 18.666C24.0969 18.0922 23.6951 17.568 23.224 17.11C22.7275 16.6434 22.145 16.2776 21.509 16.0331C20.8112 15.7627 20.0684 15.6269 19.32 15.633C18.8837 15.6789 18.4706 15.8528 18.133 16.133C17.777 16.365 17.361 16.633 16.897 16.933C16.3946 17.2315 15.8572 17.4666 15.297 17.633C14.027 18.0545 12.655 18.0545 11.385 17.633C10.8248 17.4668 10.2873 17.2317 9.78503 16.933C9.32501 16.639 8.909 16.3711 8.54803 16.133C8.21075 15.8529 7.79803 15.6789 7.362 15.633C6.61359 15.6267 5.87085 15.7625 5.17303 16.0331C4.53699 16.2775 3.95453 16.6433 3.45801 17.11C2.98706 17.5678 2.58514 18.0916 2.26501 18.665C1.93964 19.2361 1.67426 19.8393 1.47302 20.465C1.27411 21.0957 1.11676 21.7387 1.00201 22.39C0.88562 23.0238 0.803467 23.6634 0.756042 24.306C0.716003 24.885 0.695007 25.487 0.695007 26.096C0.631714 27.5197 1.17499 28.9036 2.19 29.904C3.23901 30.8606 4.6236 31.3639 6.04199 31.304H20.641C22.0594 31.3637 23.444 30.8606 24.493 29.904C25.5101 28.9046 26.0552 27.5205 25.993 26.096C25.993 25.485 25.972 24.883 25.932 24.306L25.926 24.307ZM23.268 28.618C22.5491 29.2608 21.6037 29.5905 20.641 29.534H6.047C5.08447 29.5907 4.13904 29.2614 3.41998 28.619C2.76025 27.9518 2.41711 27.0344 2.47699 26.098C2.47699 25.53 2.49603 24.969 2.53302 24.431C2.57599 23.8524 2.65009 23.2766 2.755 22.706C2.85565 22.1309 2.99396 21.563 3.16901 21.006C3.33295 20.4985 3.54871 20.0092 3.81299 19.546C4.04828 19.1223 4.34369 18.735 4.69 18.396C5.02087 18.088 5.40839 17.8473 5.83099 17.687C6.27826 17.5157 6.75214 17.4243 7.23102 17.417C7.29303 17.45 7.40399 17.517 7.58301 17.63C7.948 17.868 8.36902 18.139 8.83398 18.437C9.46277 18.8198 10.137 19.1221 10.841 19.337C12.4647 19.8723 14.2173 19.8723 15.841 19.337C16.5457 19.1222 17.2206 18.8198 17.85 18.437C18.326 18.137 18.735 17.869 19.1 17.631C19.279 17.514 19.39 17.451 19.452 17.418C19.9309 17.4254 20.4047 17.5168 20.852 17.688C21.2745 17.8485 21.662 18.0892 21.993 18.397C22.3395 18.7359 22.6349 19.1233 22.87 19.547C23.1345 20.0102 23.3503 20.4995 23.514 21.007C23.6891 21.564 23.8275 22.1319 23.928 22.707C24.0327 23.2776 24.1068 23.8535 24.15 24.432C24.188 24.968 24.207 25.532 24.207 26.098C24.267 27.0345 23.9239 27.9519 23.264 28.619L23.268 28.618Z" fill="white"/>
<path d="M25.926 24.307L25.577 24.333L25.6054 24.7159L25.9841 24.6522L25.926 24.307ZM25.68 22.392L25.3353 22.4526L25.3357 22.4551L25.68 22.392ZM25.209 20.466L25.5428 20.3607L25.5422 20.359L25.209 20.466ZM24.417 18.666L24.1113 18.8365L24.1129 18.8393L24.417 18.666ZM23.224 17.11L23.468 16.859L23.4637 16.855L23.224 17.11ZM21.509 16.0331L21.3826 16.3594L21.3834 16.3597L21.509 16.0331ZM19.32 15.633L19.3172 15.283L19.3003 15.2832L19.2834 15.2849L19.32 15.633ZM18.133 16.133L18.3241 16.4262L18.341 16.4152L18.3565 16.4024L18.133 16.133ZM16.897 16.933L17.0759 17.2342L17.0871 17.227L16.897 16.933ZM15.297 17.633L15.1973 17.2973L15.1868 17.3008L15.297 17.633ZM11.385 17.633L11.4953 17.3007L11.4846 17.2975L11.385 17.633ZM9.78503 16.933L9.59645 17.2281L9.60616 17.2339L9.78503 16.933ZM8.54803 16.133L8.32443 16.4023L8.33926 16.4146L8.35535 16.4252L8.54803 16.133ZM7.362 15.633L7.39864 15.2849L7.38184 15.2832L7.36494 15.283L7.362 15.633ZM5.17303 16.0331L5.29861 16.3597L5.29956 16.3594L5.17303 16.0331ZM3.45801 17.11L3.21826 16.855L3.21406 16.859L3.45801 17.11ZM2.26501 18.665L2.56913 18.8383L2.57062 18.8356L2.26501 18.665ZM1.47302 20.465L1.13983 20.3578L1.13923 20.3597L1.47302 20.465ZM1.00201 22.39L1.34627 22.4533L1.34671 22.4508L1.00201 22.39ZM0.756042 24.306L0.406988 24.2802L0.406876 24.2819L0.756042 24.306ZM0.695007 26.096L1.04466 26.1116L1.04501 26.1038V26.096H0.695007ZM2.19 29.904L1.94413 30.1535L1.95417 30.1626L2.19 29.904ZM6.04199 31.304V30.954H6.03462L6.02725 30.9544L6.04199 31.304ZM20.641 31.304L20.6557 30.9544L20.6484 30.954H20.641V31.304ZM24.493 29.904L24.729 30.1628L24.7383 30.1537L24.493 29.904ZM25.993 26.096H25.643V26.1037L25.6433 26.1113L25.993 26.096ZM25.932 24.306L26.2812 24.2818L26.2545 23.8968L25.8739 23.9609L25.932 24.306ZM23.268 28.618L23.5013 28.8789L23.1855 28.2779L23.268 28.618ZM20.641 29.534L20.6615 29.1846L20.6512 29.184H20.641V29.534ZM6.047 29.534V29.184H6.0367L6.02641 29.1846L6.047 29.534ZM3.41998 28.619L3.1711 28.8651L3.17871 28.8728L3.18679 28.88L3.41998 28.619ZM2.47699 26.098L2.82628 26.1203L2.82699 26.1092V26.098H2.47699ZM2.53302 24.431L2.18398 24.4051L2.18384 24.407L2.53302 24.431ZM2.755 22.706L3.09925 22.7693L3.09977 22.7664L2.755 22.706ZM3.16901 21.006L2.83594 20.8984L2.83511 20.9011L3.16901 21.006ZM3.81299 19.546L4.11702 19.7194L4.11896 19.7159L3.81299 19.546ZM4.69 18.396L4.45147 18.1397L4.44517 18.1459L4.69 18.396ZM5.83099 17.687L5.95509 18.0143L5.95617 18.0139L5.83099 17.687ZM7.23102 17.417L7.3954 17.108L7.31582 17.0657L7.22569 17.0671L7.23102 17.417ZM7.58301 17.63L7.77421 17.3368L7.76984 17.334L7.58301 17.63ZM8.83398 18.437L8.64507 18.7318L8.652 18.736L8.83398 18.437ZM10.841 19.337L10.9506 19.0045L10.9432 19.0023L10.841 19.337ZM15.841 19.337L15.7389 19.0021L15.7314 19.0046L15.841 19.337ZM17.85 18.437L18.0319 18.7361L18.0367 18.7331L17.85 18.437ZM19.1 17.631L19.2912 17.9242L19.2916 17.924L19.1 17.631ZM19.452 17.418L19.4574 17.068L19.3672 17.0666L19.2875 17.1091L19.452 17.418ZM20.852 17.688L20.7268 18.0149L20.7277 18.0152L20.852 17.688ZM21.993 18.397L22.2378 18.1467L22.2313 18.1407L21.993 18.397ZM22.87 19.547L22.5639 19.7168L22.5661 19.7206L22.87 19.547ZM23.514 21.007L23.8479 20.9021L23.8471 20.8996L23.514 21.007ZM23.928 22.707L23.5833 22.7673L23.5838 22.7701L23.928 22.707ZM24.207 26.098H23.857V26.1092L23.8577 26.1204L24.207 26.098ZM23.264 28.619L23.0152 28.3728L22.1476 29.2499L23.3465 28.9591L23.264 28.619ZM26.2751 24.2811C26.2264 23.6263 26.1427 22.9746 26.0243 22.3289L25.3357 22.4551C25.4496 23.0763 25.5302 23.7032 25.577 24.333L26.2751 24.2811ZM26.0247 22.3314C25.9075 21.6646 25.7465 21.0063 25.5428 20.3607L24.8752 20.5714C25.0697 21.1877 25.2234 21.8161 25.3353 22.4526L26.0247 22.3314ZM25.5422 20.359C25.3338 19.7102 25.0585 19.0847 24.7211 18.4927L24.1129 18.8393C24.4264 19.3893 24.6821 19.9704 24.8758 20.5731L25.5422 20.359ZM24.7227 18.4955C24.386 17.892 23.9634 17.3408 23.468 16.8591L22.98 17.361C23.4267 17.7953 23.8078 18.2923 24.1113 18.8365L24.7227 18.4955ZM23.4637 16.855C22.9341 16.3573 22.3129 15.9672 21.6347 15.7064L21.3834 16.3597C21.9771 16.588 22.5208 16.9295 22.9843 17.3651L23.4637 16.855ZM21.6355 15.7067C20.8964 15.4203 20.1097 15.2766 19.3172 15.283L19.3229 15.983C20.027 15.9773 20.7259 16.105 21.3826 16.3594L21.6355 15.7067ZM19.2834 15.2849C18.7784 15.338 18.3003 15.5394 17.9095 15.8637L18.3565 16.4024C18.641 16.1663 18.989 16.0197 19.3566 15.9811L19.2834 15.2849ZM17.9419 15.8398C17.5866 16.0713 17.1717 16.3386 16.707 16.6391L17.0871 17.227C17.5503 16.9274 17.9674 16.6587 18.3241 16.4262L17.9419 15.8398ZM16.7183 16.6321C16.2407 16.9158 15.7298 17.1393 15.1973 17.2975L15.3967 17.9685C15.9845 17.7939 16.5485 17.5471 17.0758 17.234L16.7183 16.6321ZM15.1868 17.3008C13.9884 17.6986 12.6936 17.6986 11.4953 17.3008L11.2748 17.9652C12.6163 18.4104 14.0657 18.4104 15.4072 17.9652L15.1868 17.3008ZM11.4846 17.2975C10.9521 17.1395 10.4413 16.916 9.96391 16.6322L9.60616 17.2339C10.1333 17.5473 10.6975 17.7941 11.2855 17.9686L11.4846 17.2975ZM9.97352 16.6381C9.5139 16.3444 9.09956 16.0775 8.74072 15.8408L8.35535 16.4252C8.71844 16.6647 9.13613 16.9337 9.59655 17.228L9.97352 16.6381ZM8.77164 15.8638C8.3812 15.5395 7.90342 15.3381 7.39864 15.2849L7.32536 15.9811C7.69265 16.0198 8.04031 16.1663 8.32443 16.4023L8.77164 15.8638ZM7.36494 15.283C6.57226 15.2764 5.78559 15.4202 5.0465 15.7067L5.29956 16.3594C5.95611 16.1048 6.65492 15.9771 7.35906 15.983L7.36494 15.283ZM5.04746 15.7064C4.36907 15.9671 3.74785 16.3572 3.2183 16.855L3.69772 17.365C4.16121 16.9294 4.7049 16.588 5.29861 16.3597L5.04746 15.7064ZM3.21406 16.859C2.71879 17.3404 2.2961 17.8913 1.95941 18.4944L2.57062 18.8356C2.87419 18.2919 3.25533 17.7951 3.70196 17.361L3.21406 16.859ZM1.96091 18.4917C1.62358 19.0838 1.34845 19.7092 1.13983 20.3578L1.80621 20.5722C2.00006 19.9695 2.2557 19.3884 2.56912 18.8383L1.96091 18.4917ZM1.13923 20.3597C0.935715 21.005 0.774725 21.6629 0.657323 22.3293L1.34671 22.4508C1.4588 21.8145 1.6125 21.1864 1.80682 20.5703L1.13923 20.3597ZM0.657772 22.3268C0.539106 22.9729 0.455345 23.625 0.406992 24.2802L1.10509 24.3318C1.15159 23.7017 1.23213 23.0747 1.34626 22.4533L0.657772 22.3268ZM0.406876 24.2819C0.366274 24.869 0.345007 25.4791 0.345007 26.096H1.04501C1.04501 25.495 1.06573 24.901 1.10521 24.3301L0.406876 24.2819ZM0.345353 26.0805C0.277658 27.6032 0.858712 29.0833 1.94431 30.1533L2.43569 29.6547C1.49126 28.7239 0.98577 27.4363 1.04466 26.1116L0.345353 26.0805ZM1.95417 30.1626C3.07142 31.1815 4.54607 31.7174 6.05674 31.6537L6.02725 30.9544C4.70112 31.0103 3.40661 30.5398 2.42584 29.6454L1.95417 30.1626ZM6.04199 31.654H20.641V30.954H6.04199V31.654ZM20.6263 31.6537C22.137 31.7173 23.6116 31.1814 24.7288 30.1626L24.2572 29.6454C23.2764 30.5397 21.9819 31.0102 20.6557 30.9544L20.6263 31.6537ZM24.7383 30.1537C25.8261 29.0847 26.4092 27.6044 26.3426 26.0808L25.6433 26.1113C25.7012 27.4367 25.194 28.7245 24.2477 29.6544L24.7383 30.1537ZM26.343 26.096C26.343 25.4771 26.3217 24.867 26.2812 24.2818L25.5828 24.3302C25.6223 24.899 25.643 25.4929 25.643 26.096H26.343ZM25.8739 23.9609L25.8679 23.9619L25.9841 24.6522L25.9901 24.6512L25.8739 23.9609ZM23.0347 28.3571C22.3853 28.9378 21.5312 29.2356 20.6615 29.1846L20.6205 29.8834C21.6762 29.9453 22.713 29.5838 23.5013 28.8789L23.0347 28.3571ZM20.641 29.184H6.047V29.884H20.641V29.184ZM6.02641 29.1846C5.15687 29.2359 4.30277 28.9384 3.65318 28.358L3.18679 28.88C3.97531 29.5845 5.01207 29.9456 6.06758 29.8834L6.02641 29.1846ZM3.66887 28.3729C3.07938 27.7767 2.77278 26.957 2.82628 26.1203L2.1277 26.0757C2.06145 27.1118 2.44113 28.1268 3.1711 28.8651L3.66887 28.3729ZM2.82699 26.098C2.82699 25.5377 2.84578 24.9847 2.8822 24.455L2.18384 24.407C2.14629 24.9533 2.12699 25.5223 2.12699 26.098H2.82699ZM2.88206 24.4569C2.9241 23.8909 2.99659 23.3276 3.09923 22.7693L2.41078 22.6427C2.30358 23.2257 2.22788 23.814 2.18398 24.4051L2.88206 24.4569ZM3.09977 22.7664C3.19777 22.2063 3.33245 21.6533 3.50291 21.1109L2.83511 20.9011C2.65547 21.4727 2.51353 22.0555 2.41024 22.6457L3.09977 22.7664ZM3.50206 21.1136C3.65861 20.629 3.86465 20.1618 4.117 19.7194L3.50898 19.3726C3.23277 19.8567 3.00728 20.3681 2.83595 20.8984L3.50206 21.1136ZM4.11896 19.7159C4.33785 19.3218 4.61266 18.9615 4.93483 18.6461L4.44517 18.1459C4.07472 18.5085 3.75871 18.9229 3.50701 19.3761L4.11896 19.7159ZM4.92846 18.6522C5.22617 18.3751 5.57484 18.1585 5.95509 18.0143L5.7069 17.3597C5.24193 17.5361 4.81558 17.801 4.45155 18.1398L4.92846 18.6522ZM5.95617 18.0139C6.36516 17.8572 6.79847 17.7737 7.23635 17.767L7.22569 17.0671C6.7058 17.075 6.19136 17.1742 5.70582 17.3602L5.95617 18.0139ZM7.06664 17.726C7.11541 17.752 7.21571 17.812 7.39618 17.926L7.76984 17.334C7.59228 17.222 7.47065 17.1481 7.3954 17.108L7.06664 17.726ZM7.39183 17.9232C7.758 18.162 8.17994 18.4335 8.64512 18.7317L9.02285 18.1423C8.55809 17.8445 8.138 17.5741 7.77418 17.3368L7.39183 17.9232ZM8.652 18.736C9.30578 19.1339 10.0068 19.4483 10.7388 19.6718L10.9432 19.0023C10.2672 18.7959 9.61976 18.5056 9.01597 18.138L8.652 18.736ZM10.7314 19.6694C12.4263 20.2281 14.2558 20.2282 15.9506 19.6694L15.7314 19.0046C14.1789 19.5164 12.5031 19.5164 10.9506 19.0046L10.7314 19.6694ZM15.9431 19.6718C16.6757 19.4484 17.3775 19.1341 18.0319 18.7361L17.6682 18.138C17.0637 18.5056 16.4156 18.7959 15.7389 19.0022L15.9431 19.6718ZM18.0367 18.7331C18.5154 18.4313 18.9269 18.1617 19.2912 17.9242L18.9089 17.3378C18.5431 17.5763 18.1366 17.8426 17.6634 18.1409L18.0367 18.7331ZM19.2916 17.924C19.4631 17.8118 19.5651 17.7543 19.6165 17.7269L19.2875 17.1091C19.2149 17.1477 19.0949 17.2162 18.9085 17.3381L19.2916 17.924ZM19.4466 17.768C19.8846 17.7747 20.3178 17.8583 20.7268 18.0149L20.9771 17.3612C20.4916 17.1752 19.9773 17.0761 19.4574 17.068L19.4466 17.768ZM20.7277 18.0152C21.1081 18.1596 21.4568 18.3763 21.7546 18.6533L22.2313 18.1407C21.8673 17.8021 21.441 17.5373 20.9762 17.3608L20.7277 18.0152ZM21.7483 18.6472C22.0705 18.9624 22.3453 19.3227 22.5639 19.7168L23.176 19.3772C22.9245 18.9238 22.6084 18.5093 22.2377 18.1468L21.7483 18.6472ZM22.5661 19.7206C22.8185 20.1627 23.0246 20.6299 23.1809 21.1145L23.8471 20.8996C23.676 20.369 23.4504 19.8576 23.1739 19.3735L22.5661 19.7206ZM23.1802 21.112C23.3507 21.6543 23.4853 22.2073 23.5833 22.7673L24.2728 22.6467C24.1696 22.0565 24.0276 21.4737 23.8479 20.9021L23.1802 21.112ZM23.5838 22.7701C23.6861 23.3285 23.7587 23.892 23.801 24.4581L24.4991 24.406C24.4549 23.815 24.3792 23.2268 24.2723 22.6439L23.5838 22.7701ZM23.8009 24.4568C23.8382 24.984 23.857 25.5397 23.857 26.098H24.557C24.557 25.5244 24.5377 24.9521 24.4991 24.4073L23.8009 24.4568ZM23.8577 26.1204C23.9114 26.9571 23.6048 27.7768 23.0152 28.3728L23.5128 28.8651C24.243 28.1269 24.6227 27.1118 24.5563 26.0756L23.8577 26.1204ZM23.3465 28.9591L23.3505 28.9581L23.1855 28.2779L23.1815 28.2788L23.3465 28.9591Z" fill="white"/>
</g>
</svg>
