<svg width="15" height="16" viewBox="0 0 15 16" fill="none" xmlns="http://www.w3.org/2000/svg">
<path fill-rule="evenodd" clip-rule="evenodd" d="M1.54456 15.5681L12.4515 3.021L12.8509 11.8035C12.872 12.2629 13.2618 12.6189 13.7216 12.5977C14.1814 12.5769 14.5372 12.187 14.5164 11.7273L14.0595 1.69727C14.029 1.25293 13.8217 0.839111 13.484 0.548584C13.1463 0.258057 12.7062 0.114746 12.2623 0.150879L2.28607 1.09302C1.8277 1.13623 1.49121 1.54297 1.53436 2.00098C1.57764 2.45947 1.98419 2.79614 2.44257 2.75269L11.2125 1.90576L0.286499 14.4746C-0.0155029 14.822 0.0213013 15.3484 0.368713 15.6504C0.716126 15.9524 1.24255 15.9155 1.54456 15.5681Z" fill="#326DF9"/>
</svg>
